<?xml version="1.0" encoding="UTF-8"?>
<!DOCTYPE svg PUBLIC "-//W3C//DTD SVG 1.1//EN" "http://www.w3.org/Graphics/SVG/1.1/DTD/svg11.dtd">
<!-- Creator: CorelDRAW 2026 -->
<svg xmlns="http://www.w3.org/2000/svg" xml:space="preserve" width="189mm" height="36.576mm" version="1.1" style="shape-rendering:geometricPrecision; text-rendering:geometricPrecision; image-rendering:optimizeQuality; fill-rule:evenodd; clip-rule:evenodd"
viewBox="0 0 18900.04 3657.6"
 xmlns:xlink="http://www.w3.org/1999/xlink"
 xmlns:xodm="http://www.corel.com/coreldraw/odm/2003">
 <defs>
  <style type="text/css">
   <![CDATA[
    .str0 {stroke:#8FC549;stroke-width:7.62;stroke-miterlimit:2.61313}
    .fil1 {fill:#0055A6}
    .fil0 {fill:#8FC549}
    .fil2 {fill:#0055A6;fill-rule:nonzero}
    .fil3 {fill:#8FC549;fill-rule:nonzero}
   ]]>
  </style>
 </defs>
 <g id="Camada_x0020_1">
  <metadata id="CorelCorpID_0Corel-Layer"/>
  <g id="_2719393463712">
   <g>
    <path class="fil0" d="M198.5 2045.64c-49.73,-275.58 79.56,-505.09 210.01,-620.96 70.19,-62.35 157.35,-112.08 249.4,-162.56 237.04,-130.02 547.1,-319.08 792.98,-460.88 239.83,-138.31 554.64,-316.18 785.43,-459.67 80.35,-49.95 174.25,-104.66 284.58,-136.1 246.83,-70.34 503.68,31.81 633.31,154.32 179.6,169.74 188.19,296.4 241.71,589.54 44.9,245.89 78.33,480.55 118.13,726.99 77.24,478.25 238.02,906.22 -284.68,1207.68 -170.72,98.46 -372.33,188.07 -556.27,276.77 -158.72,76.53 -403.99,213.83 -579.57,252.91 -485.82,108.13 -893.28,-44.64 -1191.56,-398.38 -128.54,-152.45 -250.33,-312.71 -377.49,-455.55 -147.97,-166.21 -285.46,-289.61 -325.98,-514.11zm2388.26 -2037.66c-153.54,19.12 -226.37,57.51 -340.75,119.43l-1171.36 682.64c-97.51,56.12 -195.89,115.86 -294.58,171.09 -171.91,96.23 -434.75,234.56 -558.12,373.42 -139.86,157.41 -252.95,405.3 -209.95,707.31 41.06,288.38 204.38,431.26 336.11,593.69 69.09,85.2 139.83,160.9 214.26,251.23 70.61,85.7 136.85,171.65 210.83,254.84 149.37,167.96 308.93,302.93 541.17,390.47 609.27,229.64 982.64,2.94 1454.22,-224.04 458.02,-220.45 885.88,-352.88 1004,-849.59 56.42,-237.22 -27.37,-571.76 -66.5,-808.38 -43.82,-264.92 -90.01,-533.46 -132.02,-797.41 -48.36,-303.81 -113.18,-486.43 -290.93,-641.88 -160.85,-140.68 -386.42,-261.41 -696.38,-222.82z"/>
    <g>
     <path class="fil1" d="M1052.04 1711.77l165.67 0c70.22,0 127.68,57.46 127.68,127.68l0 176.4c0,70.23 -57.46,127.68 -127.68,127.68l-165.67 0c-70.22,0 -127.67,-57.45 -127.67,-127.68l0 -176.4c0,-70.22 57.45,-127.68 127.67,-127.68z"/>
     <path class="fil1" d="M1844.67 1711.77l165.67 0c70.22,0 127.68,57.46 127.68,127.68l0 176.4c0,70.23 -57.46,127.68 -127.68,127.68l-165.67 0c-70.22,0 -127.67,-57.45 -127.67,-127.68l0 -176.4c0,-70.22 57.45,-127.68 127.67,-127.68z"/>
     <path class="fil1" d="M2637.3 1711.77l165.68 0c70.22,0 127.67,57.46 127.67,127.68l0 176.4c0,70.23 -57.45,127.68 -127.67,127.68l-165.68 0c-70.22,0 -127.67,-57.45 -127.67,-127.68l0 -176.4c0,-70.22 57.45,-127.68 127.67,-127.68z"/>
    </g>
   </g>
   <path class="fil2" d="M5652.44 2120.18l185.32 187.49c-69.77,69.77 -151.16,124.27 -244.18,163.52 -93.02,39.24 -191.13,58.86 -294.32,58.86 -103.19,0 -202.03,-19.98 -296.5,-59.95 -94.47,-39.97 -175.87,-94.11 -244.18,-162.43 -68.31,-68.31 -122.45,-149.7 -162.42,-244.17 -39.97,-94.48 -59.95,-193.31 -59.95,-296.5 0,-138.08 34.15,-265.62 102.46,-382.62 68.32,-117 160.97,-209.66 277.97,-277.97 117.01,-68.31 244.54,-102.46 382.62,-102.46 52.32,0 103.56,5.08 153.7,15.26 50.14,10.17 98.11,25.07 143.89,44.69 45.78,19.62 89.02,43.24 129.72,70.85 40.7,27.62 77.76,58.87 111.19,93.75l-185.32 185.31c-97.38,-97.38 -215.1,-146.07 -353.18,-146.07 -138.08,0 -255.8,48.69 -353.18,146.07 -97.38,97.38 -146.07,215.11 -146.07,353.19 0,138.07 48.69,255.8 146.07,353.18 97.38,97.38 215.1,146.07 353.18,146.07 138.08,0 255.8,-48.69 353.18,-146.07zm655.14 -1013.77c117,-68.31 244.54,-102.46 382.62,-102.46 138.07,0 265.61,34.15 382.61,102.46 117,68.31 209.66,160.97 277.97,277.97 68.31,117 102.47,244.54 102.47,382.62 0,138.07 -34.16,265.61 -102.47,382.61 -68.31,117.01 -160.97,209.66 -277.97,277.97 -117,68.31 -244.54,102.47 -382.61,102.47 -138.08,0 -265.62,-34.16 -382.62,-102.47 -117,-68.31 -209.66,-160.96 -277.97,-277.97 -68.31,-117 -102.47,-244.54 -102.47,-382.61 0,-138.08 34.16,-265.62 102.47,-382.62 68.31,-117 160.97,-209.66 277.97,-277.97zm29.43 1013.77c97.38,97.38 215.11,146.07 353.19,146.07 138.07,0 255.8,-48.69 353.18,-146.07 97.38,-97.38 146.07,-215.11 146.07,-353.18 0,-138.08 -48.69,-255.81 -146.07,-353.19 -97.38,-97.38 -215.11,-146.07 -353.18,-146.07 -138.08,0 -255.81,48.69 -353.19,146.07 -97.38,97.38 -146.07,215.11 -146.07,353.19 0,138.07 48.69,255.8 146.07,353.18zm2018.82 -1116.23l263.8 0 0 1526.1 -263.8 0 -902.58 -1526.1 307.4 0 595.18 1005.04 0 -1005.04zm1556.63 1526.1l-1074.81 0 0 -263.8 1074.81 0 0 263.8zm0 -1262.31l-1074.81 0 0 -263.79 1074.81 0 0 263.79zm-180.95 632.25l-893.86 0 0 -265.98 893.86 0 0 265.98zm1451.97 220.19l185.32 187.49c-69.77,69.77 -151.16,124.27 -244.18,163.52 -93.02,39.24 -191.13,58.86 -294.32,58.86 -103.19,0 -202.03,-19.98 -296.5,-59.95 -94.47,-39.97 -175.87,-94.11 -244.18,-162.43 -68.31,-68.31 -122.45,-149.7 -162.42,-244.17 -39.97,-94.48 -59.95,-193.31 -59.95,-296.5 0,-138.08 34.15,-265.62 102.46,-382.62 68.32,-117 160.97,-209.66 277.97,-277.97 117.01,-68.31 244.54,-102.46 382.62,-102.46 52.32,0 103.56,5.08 153.7,15.26 50.14,10.17 98.11,25.07 143.89,44.69 45.78,19.62 89.02,43.24 129.72,70.85 40.7,27.62 77.76,58.87 111.19,93.75l-185.32 185.31c-97.38,-97.38 -215.1,-146.07 -353.18,-146.07 -138.08,0 -255.8,48.69 -353.18,146.07 -97.38,97.38 -146.07,215.11 -146.07,353.19 0,138.07 48.69,255.8 146.07,353.18 97.38,97.38 215.1,146.07 353.18,146.07 138.08,0 255.8,-48.69 353.18,-146.07zm405.51 -1116.23l1074.81 0 0 263.79 -405.51 0 0 1262.31 -263.79 0 0 -1262.31 -405.51 0 0 -263.79zm1892.37 0l555.93 1526.1 -281.24 0 -416.4 -1140.22 -414.23 1140.22 -281.24 0 555.94 -1526.1 281.24 0z"/>
   <path class="fil3 str0" d="M14647.62 2053.88l185.32 187.49c-69.77,69.77 -151.16,124.27 -244.18,163.52 -93.02,39.24 -191.13,58.86 -294.32,58.86 -138.08,0 -265.61,-34.16 -382.62,-102.47 -117,-68.31 -209.65,-160.96 -277.97,-277.97 -68.31,-117 -102.46,-244.54 -102.46,-382.61 0,-138.08 34.15,-265.62 102.46,-382.62 68.32,-117 160.97,-209.66 277.97,-277.97 117.01,-68.31 244.54,-102.46 382.62,-102.46 52.32,0 103.56,5.08 153.7,15.26 50.14,10.17 98.11,25.07 143.89,44.69 45.78,19.62 89.02,43.24 129.72,70.85 40.7,27.62 77.76,58.87 111.19,93.75l-185.32 185.31c-97.38,-97.38 -215.1,-146.07 -353.18,-146.07 -138.08,0 -255.8,48.69 -353.18,146.07 -97.38,97.38 -146.07,215.11 -146.07,353.19 0,138.07 48.69,255.8 146.07,353.18 97.38,97.38 215.1,146.07 353.18,146.07 138.08,0 255.8,-48.69 353.18,-146.07zm1308.09 -1116.23l263.8 0 0 1526.1 -263.8 0 0 -630.06 -638.78 0 0 630.06 -263.8 0 0 -1526.1 263.8 0 0 630.06 638.78 0 0 -630.06zm1321.18 0l555.93 1526.1 -281.24 0 -416.4 -1140.22 -414.23 1140.22 -281.24 0 555.94 -1526.1 281.24 0zm534.13 0l1074.81 0 0 263.79 -405.51 0 0 1262.31 -263.79 0 0 -1262.31 -405.51 0 0 -263.79z"/>
  </g>
 </g>
</svg>
