<?xml version="1.0" encoding="UTF-8"?>
<!DOCTYPE svg PUBLIC "-//W3C//DTD SVG 1.1//EN" "http://www.w3.org/Graphics/SVG/1.1/DTD/svg11.dtd">
<!-- Creator: CorelDRAW 2026 -->
<svg xmlns="http://www.w3.org/2000/svg" xml:space="preserve" width="143.595mm" height="88.9mm" version="1.1" style="shape-rendering:geometricPrecision; text-rendering:geometricPrecision; image-rendering:optimizeQuality; fill-rule:evenodd; clip-rule:evenodd"
viewBox="0 0 14359.46 8890"
 xmlns:xlink="http://www.w3.org/1999/xlink"
 xmlns:xodm="http://www.corel.com/coreldraw/odm/2003">
 <defs>
  <style type="text/css">
   <![CDATA[
    .str0 {stroke:#8FC549;stroke-width:7.62;stroke-miterlimit:2.61313}
    .fil1 {fill:#0055A6}
    .fil0 {fill:#8FC549}
    .fil2 {fill:#0055A6;fill-rule:nonzero}
    .fil3 {fill:#8FC549;fill-rule:nonzero}
   ]]>
  </style>
 </defs>
 <g id="Camada_x0020_1">
  <metadata id="CorelCorpID_0Corel-Layer"/>
  <g id="_1559789228768">
   <path class="fil0" d="M4302.27 3395.49c-82.86,-459.12 132.56,-841.51 349.89,-1034.56 116.94,-103.88 262.17,-186.73 415.52,-270.85 394.94,-216.62 911.52,-531.61 1321.18,-767.85 399.58,-230.43 924.08,-526.79 1308.6,-765.85 133.86,-83.22 290.31,-174.38 474.13,-226.76 411.24,-117.19 839.17,53.01 1055.15,257.12 299.23,282.79 313.53,493.81 402.71,982.23 74.8,409.66 130.49,800.62 196.81,1211.21 128.68,796.8 396.56,1509.84 -474.3,2012.1 -284.43,164.04 -620.34,313.35 -926.79,461.12 -264.45,127.52 -673.09,356.26 -965.61,421.37 -809.43,180.16 -1488.29,-74.37 -1985.24,-663.73 -214.17,-253.99 -417.08,-521.01 -628.93,-758.98 -246.54,-276.93 -475.61,-482.52 -543.12,-856.57zm3979.05 -3394.9c-255.82,31.85 -377.16,95.82 -567.73,198.97l-1951.57 1137.35c-162.47,93.49 -326.38,193.02 -490.8,285.05 -286.41,160.32 -724.33,390.8 -929.88,622.15 -233.02,262.26 -421.43,675.26 -349.79,1178.43 68.41,480.47 340.51,718.52 559.98,989.15 115.12,141.94 232.97,268.07 356.98,418.56 117.64,142.78 228,285.99 351.26,424.59 248.86,279.83 514.71,504.71 901.64,650.55 1015.1,382.6 1637.16,4.89 2422.86,-373.27 763.09,-367.29 1475.94,-587.92 1672.74,-1415.48 94,-395.24 -45.6,-952.61 -110.8,-1346.84 -73,-441.38 -149.96,-888.78 -219.96,-1328.55 -80.57,-506.17 -188.55,-810.43 -484.7,-1069.43 -268,-234.38 -643.82,-435.53 -1160.23,-371.23z"/>
   <g>
    <path class="fil1" d="M5724.34 2839.26l276.03 0c116.99,0 212.72,95.71 212.72,212.71l0 293.91c0,116.99 -95.73,212.71 -212.72,212.71l-276.03 0c-116.99,0 -212.71,-95.72 -212.71,-212.71l0 -293.91c0,-117 95.72,-212.71 212.71,-212.71z"/>
    <path class="fil1" d="M7044.93 2839.26l276.03 0c116.99,0 212.71,95.71 212.71,212.71l0 293.91c0,116.99 -95.72,212.71 -212.71,212.71l-276.03 0c-116.99,0 -212.71,-95.72 -212.71,-212.71l0 -293.91c0,-117 95.72,-212.71 212.71,-212.71z"/>
    <path class="fil1" d="M8365.52 2839.26l276.03 0c116.99,0 212.72,95.71 212.72,212.71l0 293.91c0,116.99 -95.73,212.71 -212.72,212.71l-276.03 0c-116.99,0 -212.71,-95.72 -212.71,-212.71l0 -293.91c0,-117 95.72,-212.71 212.71,-212.71z"/>
   </g>
  </g>
  <g id="_1559789226944">
   <path class="fil2" d="M1105.49 8458.8l185.32 187.49c-69.77,69.77 -151.16,124.27 -244.18,163.52 -93.02,39.24 -191.13,58.86 -294.32,58.86 -103.19,0 -202.03,-19.98 -296.5,-59.95 -94.47,-39.97 -175.87,-94.11 -244.18,-162.43 -68.31,-68.31 -122.45,-149.7 -162.42,-244.17 -39.97,-94.48 -59.95,-193.31 -59.95,-296.5 0,-138.08 34.15,-265.62 102.46,-382.62 68.32,-117 160.97,-209.66 277.97,-277.97 117.01,-68.31 244.54,-102.46 382.62,-102.46 52.32,0 103.56,5.08 153.7,15.26 50.14,10.17 98.11,25.07 143.89,44.69 45.78,19.62 89.02,43.24 129.72,70.85 40.7,27.62 77.76,58.87 111.19,93.75l-185.32 185.31c-97.38,-97.38 -215.1,-146.07 -353.18,-146.07 -138.08,0 -255.8,48.69 -353.18,146.07 -97.38,97.38 -146.07,215.11 -146.07,353.19 0,138.07 48.69,255.8 146.07,353.18 97.38,97.38 215.1,146.07 353.18,146.07 138.08,0 255.8,-48.69 353.18,-146.07zm655.14 -1013.77c117,-68.31 244.54,-102.46 382.62,-102.46 138.07,0 265.61,34.15 382.61,102.46 117,68.31 209.66,160.97 277.97,277.97 68.31,117 102.47,244.54 102.47,382.62 0,138.07 -34.16,265.61 -102.47,382.61 -68.31,117.01 -160.97,209.66 -277.97,277.97 -117,68.31 -244.54,102.47 -382.61,102.47 -138.08,0 -265.62,-34.16 -382.62,-102.47 -117,-68.31 -209.66,-160.96 -277.97,-277.97 -68.31,-117 -102.47,-244.54 -102.47,-382.61 0,-138.08 34.16,-265.62 102.47,-382.62 68.31,-117 160.97,-209.66 277.97,-277.97zm29.43 1013.77c97.38,97.38 215.11,146.07 353.19,146.07 138.07,0 255.8,-48.69 353.18,-146.07 97.38,-97.38 146.07,-215.11 146.07,-353.18 0,-138.08 -48.69,-255.81 -146.07,-353.19 -97.38,-97.38 -215.11,-146.07 -353.18,-146.07 -138.08,0 -255.81,48.69 -353.19,146.07 -97.38,97.38 -146.07,215.11 -146.07,353.19 0,138.07 48.69,255.8 146.07,353.18zm2018.82 -1116.23l263.8 0 0 1526.1 -263.8 0 -902.58 -1526.1 307.4 0 595.18 1005.04 0 -1005.04zm1556.63 1526.1l-1074.81 0 0 -263.8 1074.81 0 0 263.8zm0 -1262.31l-1074.81 0 0 -263.79 1074.81 0 0 263.79zm-180.95 632.25l-893.86 0 0 -265.98 893.86 0 0 265.98zm1451.97 220.19l185.32 187.49c-69.77,69.77 -151.16,124.27 -244.18,163.52 -93.02,39.24 -191.13,58.86 -294.32,58.86 -103.19,0 -202.03,-19.98 -296.5,-59.95 -94.47,-39.97 -175.87,-94.11 -244.18,-162.43 -68.31,-68.31 -122.45,-149.7 -162.42,-244.17 -39.97,-94.48 -59.95,-193.31 -59.95,-296.5 0,-138.08 34.15,-265.62 102.46,-382.62 68.32,-117 160.97,-209.66 277.97,-277.97 117.01,-68.31 244.54,-102.46 382.62,-102.46 52.32,0 103.56,5.08 153.7,15.26 50.14,10.17 98.11,25.07 143.89,44.69 45.78,19.62 89.02,43.24 129.72,70.85 40.7,27.62 77.76,58.87 111.19,93.75l-185.32 185.31c-97.38,-97.38 -215.1,-146.07 -353.18,-146.07 -138.08,0 -255.8,48.69 -353.18,146.07 -97.38,97.38 -146.07,215.11 -146.07,353.19 0,138.07 48.69,255.8 146.07,353.18 97.38,97.38 215.1,146.07 353.18,146.07 138.08,0 255.8,-48.69 353.18,-146.07zm405.51 -1116.23l1074.81 0 0 263.79 -405.51 0 0 1262.31 -263.79 0 0 -1262.31 -405.51 0 0 -263.79zm1892.37 0l555.93 1526.1 -281.24 0 -416.4 -1140.22 -414.23 1140.22 -281.24 0 555.94 -1526.1 281.24 0z"/>
   <path class="fil3 str0" d="M10100.67 8392.5l185.32 187.49c-69.77,69.77 -151.16,124.27 -244.18,163.52 -93.02,39.24 -191.13,58.86 -294.32,58.86 -138.08,0 -265.61,-34.16 -382.62,-102.47 -117,-68.31 -209.65,-160.96 -277.97,-277.97 -68.31,-117 -102.46,-244.54 -102.46,-382.61 0,-138.08 34.15,-265.62 102.46,-382.62 68.32,-117 160.97,-209.66 277.97,-277.97 117.01,-68.31 244.54,-102.46 382.62,-102.46 52.32,0 103.56,5.08 153.7,15.26 50.14,10.17 98.11,25.07 143.89,44.69 45.78,19.62 89.02,43.24 129.72,70.85 40.7,27.62 77.76,58.87 111.19,93.75l-185.32 185.31c-97.38,-97.38 -215.1,-146.07 -353.18,-146.07 -138.08,0 -255.8,48.69 -353.18,146.07 -97.38,97.38 -146.07,215.11 -146.07,353.19 0,138.07 48.69,255.8 146.07,353.18 97.38,97.38 215.1,146.07 353.18,146.07 138.08,0 255.8,-48.69 353.18,-146.07zm1308.09 -1116.23l263.8 0 0 1526.1 -263.8 0 0 -630.06 -638.78 0 0 630.06 -263.8 0 0 -1526.1 263.8 0 0 630.06 638.78 0 0 -630.06zm1321.18 0l555.93 1526.1 -281.24 0 -416.4 -1140.22 -414.23 1140.22 -281.24 0 555.94 -1526.1 281.24 0zm534.13 0l1074.81 0 0 263.79 -405.51 0 0 1262.31 -263.79 0 0 -1262.31 -405.51 0 0 -263.79z"/>
  </g>
 </g>
</svg>
