<?xml version="1.0" encoding="UTF-8"?>
<!DOCTYPE svg PUBLIC "-//W3C//DTD SVG 1.1//EN" "http://www.w3.org/Graphics/SVG/1.1/DTD/svg11.dtd">
<!-- Creator: CorelDRAW 2026 -->
<svg xmlns="http://www.w3.org/2000/svg" xml:space="preserve" width="38.1mm" height="36.576mm" version="1.1" style="shape-rendering:geometricPrecision; text-rendering:geometricPrecision; image-rendering:optimizeQuality; fill-rule:evenodd; clip-rule:evenodd"
viewBox="0 0 3810 3657.6"
 xmlns:xlink="http://www.w3.org/1999/xlink"
 xmlns:xodm="http://www.corel.com/coreldraw/odm/2003">
 <defs>
  <style type="text/css">
   <![CDATA[
    .fil1 {fill:#0055A6}
    .fil0 {fill:#8FC549}
   ]]>
  </style>
 </defs>
 <g id="Camada_x0020_1">
  <metadata id="CorelCorpID_0Corel-Layer"/>
  <g id="_2719395202448">
   <path class="fil0" d="M217.95 2038.13c-49.73,-275.58 79.56,-505.09 210.01,-620.96 70.19,-62.35 157.35,-112.08 249.4,-162.56 237.04,-130.02 547.1,-319.08 792.98,-460.88 239.83,-138.31 554.64,-316.18 785.43,-459.67 80.35,-49.95 174.25,-104.66 284.58,-136.1 246.83,-70.34 503.68,31.81 633.31,154.32 179.6,169.74 188.19,296.4 241.71,589.54 44.9,245.89 78.33,480.55 118.13,726.99 77.24,478.25 238.02,906.22 -284.68,1207.68 -170.72,98.46 -372.33,188.07 -556.27,276.77 -158.72,76.53 -403.99,213.83 -579.57,252.91 -485.82,108.13 -893.28,-44.64 -1191.56,-398.38 -128.54,-152.45 -250.33,-312.71 -377.49,-455.55 -147.97,-166.21 -285.46,-289.61 -325.98,-514.11zm2388.26 -2037.66c-153.54,19.12 -226.37,57.51 -340.75,119.43l-1171.36 682.64c-97.51,56.12 -195.89,115.86 -294.58,171.09 -171.91,96.23 -434.75,234.56 -558.12,373.42 -139.86,157.41 -252.95,405.3 -209.95,707.31 41.06,288.38 204.38,431.26 336.11,593.69 69.09,85.2 139.83,160.9 214.26,251.23 70.61,85.7 136.85,171.65 210.83,254.84 149.37,167.96 308.93,302.93 541.17,390.47 609.27,229.64 982.64,2.94 1454.22,-224.04 458.02,-220.45 885.88,-352.88 1004,-849.59 56.42,-237.22 -27.37,-571.76 -66.5,-808.38 -43.82,-264.92 -90.01,-533.46 -132.02,-797.41 -48.36,-303.81 -113.18,-486.43 -290.93,-641.88 -160.85,-140.68 -386.42,-261.41 -696.38,-222.82z"/>
   <g>
    <path class="fil1" d="M1071.49 1704.26l165.67 0c70.22,0 127.68,57.46 127.68,127.68l0 176.4c0,70.23 -57.46,127.68 -127.68,127.68l-165.67 0c-70.22,0 -127.67,-57.45 -127.67,-127.68l0 -176.4c0,-70.22 57.45,-127.68 127.67,-127.68z"/>
    <path class="fil1" d="M1864.12 1704.26l165.67 0c70.22,0 127.68,57.46 127.68,127.68l0 176.4c0,70.23 -57.46,127.68 -127.68,127.68l-165.67 0c-70.22,0 -127.67,-57.45 -127.67,-127.68l0 -176.4c0,-70.22 57.45,-127.68 127.67,-127.68z"/>
    <path class="fil1" d="M2656.75 1704.26l165.68 0c70.22,0 127.67,57.46 127.67,127.68l0 176.4c0,70.23 -57.45,127.68 -127.67,127.68l-165.68 0c-70.22,0 -127.67,-57.45 -127.67,-127.68l0 -176.4c0,-70.22 57.45,-127.68 127.67,-127.68z"/>
   </g>
  </g>
 </g>
</svg>
